<mxfile host="app.diagrams.net" modified="2024-02-08T18:18:46.910Z" agent="Mozilla/5.0 (Macintosh; Intel Mac OS X 10_15_7) AppleWebKit/537.36 (KHTML, like Gecko) Chrome/121.0.0.0 Safari/537.36" etag="BbgQsbo39VPFATNcaY8W" version="23.0.2" type="device">
  <diagram name="‫עמוד-1‬" id="45cTrpkECRL_6o38Camc">
    <mxGraphModel dx="1501" dy="487" grid="1" gridSize="10" guides="1" tooltips="1" connect="1" arrows="1" fold="1" page="0" pageScale="1" pageWidth="827" pageHeight="583" background="none" math="0" shadow="0">
      <root>
        <mxCell id="0" />
        <mxCell id="1" parent="0" />
        <mxCell id="AmmfmUfGRPQPvEi7KTlw-19" value="" style="edgeStyle=orthogonalEdgeStyle;rounded=0;orthogonalLoop=1;jettySize=auto;html=1;" edge="1" parent="1" source="AmmfmUfGRPQPvEi7KTlw-1" target="AmmfmUfGRPQPvEi7KTlw-9">
          <mxGeometry relative="1" as="geometry" />
        </mxCell>
        <mxCell id="AmmfmUfGRPQPvEi7KTlw-1" value="User" style="sketch=0;outlineConnect=0;fontColor=#232F3E;gradientColor=none;fillColor=#232F3D;strokeColor=none;dashed=0;verticalLabelPosition=bottom;verticalAlign=top;align=center;html=1;fontSize=12;fontStyle=0;aspect=fixed;pointerEvents=1;shape=mxgraph.aws4.user;" vertex="1" parent="1">
          <mxGeometry x="-280" y="240" width="78" height="78" as="geometry" />
        </mxCell>
        <mxCell id="AmmfmUfGRPQPvEi7KTlw-3" value="subscribe" style="sketch=0;points=[[0,0,0],[0.25,0,0],[0.5,0,0],[0.75,0,0],[1,0,0],[0,1,0],[0.25,1,0],[0.5,1,0],[0.75,1,0],[1,1,0],[0,0.25,0],[0,0.5,0],[0,0.75,0],[1,0.25,0],[1,0.5,0],[1,0.75,0]];outlineConnect=0;fontColor=#232F3E;fillColor=#ED7100;strokeColor=#ffffff;dashed=0;verticalLabelPosition=bottom;verticalAlign=top;align=center;html=1;fontSize=12;fontStyle=0;aspect=fixed;shape=mxgraph.aws4.resourceIcon;resIcon=mxgraph.aws4.lambda;" vertex="1" parent="1">
          <mxGeometry x="240" y="84" width="78" height="78" as="geometry" />
        </mxCell>
        <mxCell id="AmmfmUfGRPQPvEi7KTlw-6" value="&lt;b&gt;S3&lt;/b&gt;&lt;br&gt;Static Website" style="sketch=0;points=[[0,0,0],[0.25,0,0],[0.5,0,0],[0.75,0,0],[1,0,0],[0,1,0],[0.25,1,0],[0.5,1,0],[0.75,1,0],[1,1,0],[0,0.25,0],[0,0.5,0],[0,0.75,0],[1,0.25,0],[1,0.5,0],[1,0.75,0]];outlineConnect=0;fontColor=#232F3E;fillColor=#7AA116;strokeColor=#ffffff;dashed=0;verticalLabelPosition=bottom;verticalAlign=top;align=center;html=1;fontSize=12;fontStyle=0;aspect=fixed;shape=mxgraph.aws4.resourceIcon;resIcon=mxgraph.aws4.s3;" vertex="1" parent="1">
          <mxGeometry x="-40" y="240" width="78" height="78" as="geometry" />
        </mxCell>
        <mxCell id="AmmfmUfGRPQPvEi7KTlw-14" style="edgeStyle=orthogonalEdgeStyle;rounded=0;orthogonalLoop=1;jettySize=auto;html=1;exitX=0.5;exitY=1;exitDx=0;exitDy=0;exitPerimeter=0;" edge="1" parent="1" source="AmmfmUfGRPQPvEi7KTlw-8" target="AmmfmUfGRPQPvEi7KTlw-4">
          <mxGeometry relative="1" as="geometry" />
        </mxCell>
        <mxCell id="AmmfmUfGRPQPvEi7KTlw-8" value="&lt;b&gt;API Gateway&lt;/b&gt;" style="sketch=0;points=[[0,0,0],[0.25,0,0],[0.5,0,0],[0.75,0,0],[1,0,0],[0,1,0],[0.25,1,0],[0.5,1,0],[0.75,1,0],[1,1,0],[0,0.25,0],[0,0.5,0],[0,0.75,0],[1,0.25,0],[1,0.5,0],[1,0.75,0]];outlineConnect=0;fontColor=#232F3E;fillColor=#E7157B;strokeColor=#ffffff;dashed=0;verticalLabelPosition=bottom;verticalAlign=top;align=center;html=1;fontSize=12;fontStyle=0;aspect=fixed;shape=mxgraph.aws4.resourceIcon;resIcon=mxgraph.aws4.api_gateway;labelBorderColor=none;labelBackgroundColor=default;" vertex="1" parent="1">
          <mxGeometry x="120" y="162" width="78" height="78" as="geometry" />
        </mxCell>
        <mxCell id="AmmfmUfGRPQPvEi7KTlw-17" value="" style="edgeStyle=orthogonalEdgeStyle;rounded=0;orthogonalLoop=1;jettySize=auto;html=1;" edge="1" parent="1" source="AmmfmUfGRPQPvEi7KTlw-9" target="AmmfmUfGRPQPvEi7KTlw-6">
          <mxGeometry relative="1" as="geometry" />
        </mxCell>
        <mxCell id="AmmfmUfGRPQPvEi7KTlw-9" value="&lt;b&gt;CloudFront&lt;/b&gt;" style="sketch=0;points=[[0,0,0],[0.25,0,0],[0.5,0,0],[0.75,0,0],[1,0,0],[0,1,0],[0.25,1,0],[0.5,1,0],[0.75,1,0],[1,1,0],[0,0.25,0],[0,0.5,0],[0,0.75,0],[1,0.25,0],[1,0.5,0],[1,0.75,0]];outlineConnect=0;fontColor=#232F3E;fillColor=#8C4FFF;strokeColor=#ffffff;dashed=0;verticalLabelPosition=bottom;verticalAlign=top;align=center;html=1;fontSize=12;fontStyle=0;aspect=fixed;shape=mxgraph.aws4.resourceIcon;resIcon=mxgraph.aws4.cloudfront;" vertex="1" parent="1">
          <mxGeometry x="-160" y="240" width="78" height="78" as="geometry" />
        </mxCell>
        <mxCell id="AmmfmUfGRPQPvEi7KTlw-13" style="edgeStyle=orthogonalEdgeStyle;rounded=0;orthogonalLoop=1;jettySize=auto;html=1;exitX=0.5;exitY=0;exitDx=0;exitDy=0;exitPerimeter=0;entryX=0;entryY=0.5;entryDx=0;entryDy=0;entryPerimeter=0;" edge="1" parent="1" source="AmmfmUfGRPQPvEi7KTlw-8" target="AmmfmUfGRPQPvEi7KTlw-3">
          <mxGeometry relative="1" as="geometry" />
        </mxCell>
        <mxCell id="AmmfmUfGRPQPvEi7KTlw-25" style="edgeStyle=orthogonalEdgeStyle;rounded=0;orthogonalLoop=1;jettySize=auto;html=1;exitX=1;exitY=0.5;exitDx=0;exitDy=0;exitPerimeter=0;" edge="1" parent="1" source="AmmfmUfGRPQPvEi7KTlw-2" target="AmmfmUfGRPQPvEi7KTlw-24">
          <mxGeometry relative="1" as="geometry" />
        </mxCell>
        <mxCell id="AmmfmUfGRPQPvEi7KTlw-16" value="Sender" style="sketch=0;outlineConnect=0;fontColor=#232F3E;gradientColor=none;fillColor=#232F3D;strokeColor=none;dashed=0;verticalLabelPosition=bottom;verticalAlign=top;align=center;html=1;fontSize=12;fontStyle=0;aspect=fixed;pointerEvents=1;shape=mxgraph.aws4.user;" vertex="1" parent="1">
          <mxGeometry x="-40" y="80" width="78" height="78" as="geometry" />
        </mxCell>
        <mxCell id="AmmfmUfGRPQPvEi7KTlw-21" style="edgeStyle=orthogonalEdgeStyle;rounded=0;orthogonalLoop=1;jettySize=auto;html=1;entryX=0;entryY=0.25;entryDx=0;entryDy=0;entryPerimeter=0;" edge="1" parent="1" source="AmmfmUfGRPQPvEi7KTlw-16" target="AmmfmUfGRPQPvEi7KTlw-8">
          <mxGeometry relative="1" as="geometry" />
        </mxCell>
        <mxCell id="AmmfmUfGRPQPvEi7KTlw-24" value="" style="sketch=0;outlineConnect=0;fontColor=#232F3E;gradientColor=none;fillColor=#232F3D;strokeColor=none;dashed=0;verticalLabelPosition=bottom;verticalAlign=top;align=center;html=1;fontSize=12;fontStyle=0;aspect=fixed;pointerEvents=1;shape=mxgraph.aws4.email_2;" vertex="1" parent="1">
          <mxGeometry x="600" y="98.5" width="78" height="49" as="geometry" />
        </mxCell>
        <mxCell id="AmmfmUfGRPQPvEi7KTlw-28" value="&lt;b&gt;Secrets Manager&lt;/b&gt;&lt;br&gt;API Key" style="sketch=0;points=[[0,0,0],[0.25,0,0],[0.5,0,0],[0.75,0,0],[1,0,0],[0,1,0],[0.25,1,0],[0.5,1,0],[0.75,1,0],[1,1,0],[0,0.25,0],[0,0.5,0],[0,0.75,0],[1,0.25,0],[1,0.5,0],[1,0.75,0]];outlineConnect=0;fontColor=#232F3E;fillColor=#DD344C;strokeColor=#ffffff;dashed=0;verticalLabelPosition=bottom;verticalAlign=top;align=center;html=1;fontSize=12;fontStyle=0;aspect=fixed;shape=mxgraph.aws4.resourceIcon;resIcon=mxgraph.aws4.secrets_manager;" vertex="1" parent="1">
          <mxGeometry x="240" y="360" width="78" height="78" as="geometry" />
        </mxCell>
        <mxCell id="AmmfmUfGRPQPvEi7KTlw-29" style="edgeStyle=orthogonalEdgeStyle;rounded=0;orthogonalLoop=1;jettySize=auto;html=1;exitX=0.5;exitY=1;exitDx=0;exitDy=0;exitPerimeter=0;entryX=0.5;entryY=0;entryDx=0;entryDy=0;entryPerimeter=0;" edge="1" parent="1" source="AmmfmUfGRPQPvEi7KTlw-4" target="AmmfmUfGRPQPvEi7KTlw-28">
          <mxGeometry relative="1" as="geometry" />
        </mxCell>
        <mxCell id="AmmfmUfGRPQPvEi7KTlw-32" style="edgeStyle=orthogonalEdgeStyle;rounded=0;orthogonalLoop=1;jettySize=auto;html=1;exitX=1;exitY=0.5;exitDx=0;exitDy=0;exitPerimeter=0;" edge="1" parent="1" source="AmmfmUfGRPQPvEi7KTlw-4" target="AmmfmUfGRPQPvEi7KTlw-31">
          <mxGeometry relative="1" as="geometry" />
        </mxCell>
        <mxCell id="AmmfmUfGRPQPvEi7KTlw-4" value="send-email" style="sketch=0;points=[[0,0,0],[0.25,0,0],[0.5,0,0],[0.75,0,0],[1,0,0],[0,1,0],[0.25,1,0],[0.5,1,0],[0.75,1,0],[1,1,0],[0,0.25,0],[0,0.5,0],[0,0.75,0],[1,0.25,0],[1,0.5,0],[1,0.75,0]];outlineConnect=0;fontColor=#232F3E;fillColor=#ED7100;strokeColor=#ffffff;dashed=0;verticalLabelPosition=bottom;verticalAlign=top;align=center;html=1;fontSize=12;fontStyle=0;aspect=fixed;shape=mxgraph.aws4.resourceIcon;resIcon=mxgraph.aws4.lambda;labelBackgroundColor=default;" vertex="1" parent="1">
          <mxGeometry x="240" y="240" width="78" height="78" as="geometry" />
        </mxCell>
        <mxCell id="AmmfmUfGRPQPvEi7KTlw-30" style="edgeStyle=orthogonalEdgeStyle;rounded=0;orthogonalLoop=1;jettySize=auto;html=1;exitX=1;exitY=0.5;exitDx=0;exitDy=0;exitPerimeter=0;entryX=0;entryY=0.75;entryDx=0;entryDy=0;entryPerimeter=0;" edge="1" parent="1" source="AmmfmUfGRPQPvEi7KTlw-6" target="AmmfmUfGRPQPvEi7KTlw-8">
          <mxGeometry relative="1" as="geometry" />
        </mxCell>
        <mxCell id="AmmfmUfGRPQPvEi7KTlw-35" value="" style="edgeStyle=orthogonalEdgeStyle;rounded=0;orthogonalLoop=1;jettySize=auto;html=1;" edge="1" parent="1" source="AmmfmUfGRPQPvEi7KTlw-31" target="AmmfmUfGRPQPvEi7KTlw-34">
          <mxGeometry relative="1" as="geometry" />
        </mxCell>
        <mxCell id="AmmfmUfGRPQPvEi7KTlw-31" value="&lt;b&gt;SQS&lt;/b&gt;" style="sketch=0;points=[[0,0,0],[0.25,0,0],[0.5,0,0],[0.75,0,0],[1,0,0],[0,1,0],[0.25,1,0],[0.5,1,0],[0.75,1,0],[1,1,0],[0,0.25,0],[0,0.5,0],[0,0.75,0],[1,0.25,0],[1,0.5,0],[1,0.75,0]];outlineConnect=0;fontColor=#232F3E;fillColor=#E7157B;strokeColor=#ffffff;dashed=0;verticalLabelPosition=bottom;verticalAlign=top;align=center;html=1;fontSize=12;fontStyle=0;aspect=fixed;shape=mxgraph.aws4.resourceIcon;resIcon=mxgraph.aws4.sqs;" vertex="1" parent="1">
          <mxGeometry x="360" y="240" width="78" height="78" as="geometry" />
        </mxCell>
        <mxCell id="AmmfmUfGRPQPvEi7KTlw-37" value="" style="edgeStyle=orthogonalEdgeStyle;rounded=0;orthogonalLoop=1;jettySize=auto;html=1;" edge="1" parent="1" source="AmmfmUfGRPQPvEi7KTlw-34" target="AmmfmUfGRPQPvEi7KTlw-2">
          <mxGeometry relative="1" as="geometry" />
        </mxCell>
        <mxCell id="AmmfmUfGRPQPvEi7KTlw-34" value="poll-and-send" style="sketch=0;points=[[0,0,0],[0.25,0,0],[0.5,0,0],[0.75,0,0],[1,0,0],[0,1,0],[0.25,1,0],[0.5,1,0],[0.75,1,0],[1,1,0],[0,0.25,0],[0,0.5,0],[0,0.75,0],[1,0.25,0],[1,0.5,0],[1,0.75,0]];outlineConnect=0;fontColor=#232F3E;fillColor=#ED7100;strokeColor=#ffffff;dashed=0;verticalLabelPosition=bottom;verticalAlign=top;align=center;html=1;fontSize=12;fontStyle=0;aspect=fixed;shape=mxgraph.aws4.resourceIcon;resIcon=mxgraph.aws4.lambda;labelBackgroundColor=default;" vertex="1" parent="1">
          <mxGeometry x="480" y="240" width="78" height="78" as="geometry" />
        </mxCell>
        <mxCell id="AmmfmUfGRPQPvEi7KTlw-2" value="&lt;b&gt;SES&lt;/b&gt;" style="sketch=0;points=[[0,0,0],[0.25,0,0],[0.5,0,0],[0.75,0,0],[1,0,0],[0,1,0],[0.25,1,0],[0.5,1,0],[0.75,1,0],[1,1,0],[0,0.25,0],[0,0.5,0],[0,0.75,0],[1,0.25,0],[1,0.5,0],[1,0.75,0]];outlineConnect=0;fontColor=#232F3E;fillColor=#DD344C;strokeColor=#ffffff;dashed=0;verticalLabelPosition=bottom;verticalAlign=top;align=center;html=1;fontSize=12;fontStyle=0;aspect=fixed;shape=mxgraph.aws4.resourceIcon;resIcon=mxgraph.aws4.simple_email_service;labelBackgroundColor=default;" vertex="1" parent="1">
          <mxGeometry x="480" y="84" width="78" height="78" as="geometry" />
        </mxCell>
        <mxCell id="AmmfmUfGRPQPvEi7KTlw-38" style="edgeStyle=orthogonalEdgeStyle;rounded=0;orthogonalLoop=1;jettySize=auto;html=1;exitX=1;exitY=0.5;exitDx=0;exitDy=0;exitPerimeter=0;entryX=0;entryY=0.5;entryDx=0;entryDy=0;entryPerimeter=0;" edge="1" parent="1" source="AmmfmUfGRPQPvEi7KTlw-3" target="AmmfmUfGRPQPvEi7KTlw-2">
          <mxGeometry relative="1" as="geometry" />
        </mxCell>
      </root>
    </mxGraphModel>
  </diagram>
</mxfile>
